<?xml version="1.0" encoding="UTF-8"?>
<!DOCTYPE svg PUBLIC "-//W3C//DTD SVG 1.1//EN" "http://www.w3.org/Graphics/SVG/1.1/DTD/svg11.dtd">
<svg xmlns="http://www.w3.org/2000/svg" version="1.1" width="597px" height="612px" style="shape-rendering:geometricPrecision; text-rendering:geometricPrecision; image-rendering:optimizeQuality; fill-rule:evenodd; clip-rule:evenodd" xmlns:xlink="http://www.w3.org/1999/xlink">
<g><path style="opacity:1" fill="#000000" d="M 137.5,-0.5 C 245.5,-0.5 353.5,-0.5 461.5,-0.5C 526.883,12.0383 570.05,50.0383 591,113.5C 593.447,122.518 595.28,131.518 596.5,140.5C 596.5,250.167 596.5,359.833 596.5,469.5C 588.987,525.157 560.987,566.99 512.5,595C 494.878,603.267 476.544,608.767 457.5,611.5C 351.833,611.5 246.167,611.5 140.5,611.5C 62.4927,597.159 15.4927,551.159 -0.5,473.5C -0.5,360.833 -0.5,248.167 -0.5,135.5C 8.67963,77.3209 40.013,35.8209 93.5,11C 107.804,5.25869 122.471,1.42536 137.5,-0.5 Z"/></g>
<g><path style="opacity:1" fill="#fefefe" d="M 230.5,67.5 C 286.866,67.0247 343.199,67.5247 399.5,69C 431.558,77.7239 451.391,98.2239 459,130.5C 459.333,140.167 459.667,149.833 460,159.5C 460.926,266.174 460.593,372.84 459,479.5C 450.902,517.265 427.735,538.765 389.5,544C 333.806,544.971 278.139,544.637 222.5,543C 199.094,537.584 182.26,524.084 172,502.5C 170.69,498.93 169.857,495.263 169.5,491.5C 178.506,491.334 187.506,491.5 196.5,492C 204.973,506.444 217.639,514.444 234.5,516C 285.167,516.667 335.833,516.667 386.5,516C 408.526,512.643 423.36,500.477 431,479.5C 432.106,474.231 432.773,468.897 433,463.5C 433.233,360.821 433.4,258.155 433.5,155.5C 435.188,133.335 427.188,115.835 409.5,103C 403.323,99.2742 396.656,96.9408 389.5,96C 337.5,95.3333 285.5,95.3333 233.5,96C 209.333,101.003 196.333,115.836 194.5,140.5C 186.14,140.831 177.807,140.498 169.5,139.5C 169.016,107.146 183.683,84.6459 213.5,72C 219.211,70.1657 224.878,68.6657 230.5,67.5 Z"/></g>
<g><path style="opacity:1" fill="#fefefe" d="M 282.5,122.5 C 292.085,121.584 301.085,123.417 309.5,128C 317.061,135.14 324.395,142.473 331.5,150C 335.558,152.477 339.725,153.644 344,153.5C 342.34,158.775 339.173,163.108 334.5,166.5C 337.814,170.948 341.48,175.115 345.5,179C 343.51,180.751 341.177,181.751 338.5,182C 332.812,182.554 327.145,182.387 321.5,181.5C 318.092,194.743 309.758,203.243 296.5,207C 294.413,210.508 292.08,213.842 289.5,217C 286.503,217.755 284.003,216.922 282,214.5C 280.169,218.043 277.502,219.043 274,217.5C 268.473,221.014 262.64,221.847 256.5,220C 251.702,214.643 248.202,208.476 246,201.5C 242.632,200.17 239.465,200.67 236.5,203C 228.517,209.474 223.184,217.641 220.5,227.5C 220.167,227 219.833,226.5 219.5,226C 225.079,196.84 215.746,173.84 191.5,157C 202.489,157.572 213.489,158.405 224.5,159.5C 232.369,159.76 239.702,157.927 246.5,154C 253.461,145.37 260.795,137.037 268.5,129C 272.877,125.975 277.544,123.808 282.5,122.5 Z"/></g>
<g><path style="opacity:1" fill="#fefefe" d="M 157.5,163.5 C 181.341,161.843 197.507,172.176 206,194.5C 210.38,211.837 208.047,228.171 199,243.5C 195.667,248.167 191.667,252.167 187,255.5C 187.083,258.119 187.25,260.786 187.5,263.5C 240.167,263.5 292.833,263.5 345.5,263.5C 345.333,252.828 345.5,242.161 346,231.5C 349.463,225.337 354.297,224.004 360.5,227.5C 362.194,229.554 363.361,231.888 364,234.5C 364.333,244.5 364.667,254.5 365,264.5C 366.298,257.334 366.965,250 367,242.5C 372.28,235.181 377.947,234.847 384,241.5C 385.017,248.798 385.851,256.131 386.5,263.5C 387.328,258.868 387.828,254.202 388,249.5C 391.04,243.632 395.54,242.132 401.5,245C 403.049,246.214 404.215,247.714 405,249.5C 405.499,254.155 405.666,258.821 405.5,263.5C 417.704,262.526 422.537,267.859 420,279.5C 416.161,283.836 411.328,285.503 405.5,284.5C 405.768,290.382 405.434,296.215 404.5,302C 399.521,307.746 394.354,307.913 389,302.5C 387.968,296.549 387.135,290.549 386.5,284.5C 385.904,292.554 385.07,300.554 384,308.5C 382.601,312.238 379.934,313.904 376,313.5C 371.407,313.909 368.407,311.909 367,307.5C 366.831,299.812 366.331,292.145 365.5,284.5C 364.668,293.482 364.168,302.482 364,311.5C 361.621,319.222 356.788,321.389 349.5,318C 347.951,316.786 346.785,315.286 346,313.5C 345.5,303.839 345.334,294.172 345.5,284.5C 306.499,284.333 267.499,284.5 228.5,285C 235.043,308.337 241.043,331.837 246.5,355.5C 235.5,355.5 224.5,355.5 213.5,355.5C 207.657,331.796 201.657,308.129 195.5,284.5C 191.167,284.5 186.833,284.5 182.5,284.5C 180.783,295.938 175.45,305.271 166.5,312.5C 166.167,313.5 165.833,314.5 165.5,315.5C 166.38,318.802 167.046,322.135 167.5,325.5C 154.5,325.5 141.5,325.5 128.5,325.5C 125.381,312.642 121.548,299.975 117,287.5C 111.114,268.138 112.614,249.471 121.5,231.5C 113.861,206.252 120.528,185.752 141.5,170C 146.744,167.315 152.077,165.148 157.5,163.5 Z"/></g>
<g><path style="opacity:1" fill="#fefffe" d="M 133.5,372.5 C 179.501,372.333 225.501,372.5 271.5,373C 286.88,379.47 291.047,390.303 284,405.5C 280.908,409.928 276.741,412.761 271.5,414C 225.167,414.667 178.833,414.667 132.5,414C 117.133,407.574 112.966,396.741 120,381.5C 123.528,376.834 128.028,373.834 133.5,372.5 Z"/></g>
<g><path style="opacity:1" fill="#fefffe" d="M 335.5,372.5 C 348.139,370.9 356.972,375.9 362,387.5C 364.022,405.808 355.856,414.975 337.5,415C 320.272,409.339 315.439,398.172 323,381.5C 326.299,377.118 330.466,374.118 335.5,372.5 Z"/></g>
<g><path style="opacity:1" fill="#fefffe" d="M 370.5,387.5 C 380.172,387.334 389.839,387.5 399.5,388C 405.465,391.896 405.798,396.23 400.5,401C 390.5,401.667 380.5,401.667 370.5,401C 365.234,396.455 365.234,391.955 370.5,387.5 Z"/></g>
<g><path style="opacity:1" fill="#fefffe" d="M 132.5,433.5 C 178.835,433.333 225.168,433.5 271.5,434C 286.863,440.413 291.03,451.246 284,466.5C 281.072,470.381 277.239,472.881 272.5,474C 225.5,474.667 178.5,474.667 131.5,474C 116.806,467.591 112.972,457.091 120,442.5C 123.253,438.059 127.419,435.059 132.5,433.5 Z"/></g>
<g><path style="opacity:1" fill="#fefffe" d="M 335.5,433.5 C 348.139,431.9 356.972,436.9 362,448.5C 364.469,462.069 359.302,471.236 346.5,476C 333.317,478.161 324.483,472.995 320,460.5C 317.964,447.228 323.13,438.228 335.5,433.5 Z"/></g>
<g><path style="opacity:1" fill="#fefffe" d="M 371.5,446.5 C 381.566,446.105 391.566,446.605 401.5,448C 405.706,452.38 405.373,456.38 400.5,460C 390.167,460.667 379.833,460.667 369.5,460C 365.034,454.636 365.7,450.136 371.5,446.5 Z"/></g>
</svg>
